<?xml version="1.0" encoding="UTF-8"?>
<svg width="113px" height="36px" viewBox="0 0 113 36" version="1.1" xmlns="http://www.w3.org/2000/svg" xmlns:xlink="http://www.w3.org/1999/xlink">
    <!-- Generator: Sketch 49.2 (51160) - http://www.bohemiancoding.com/sketch -->
    <title>Logo_RH_RGB_Reverse</title>
    <desc>Created with Sketch.</desc>
    <defs></defs>
    <g id="Page-1" stroke="none" stroke-width="1" fill="none" fill-rule="evenodd">
        <g id="Logo_RH_RGB_Reverse" fill-rule="nonzero">
            <g id="Group">
                <path d="M35.819,26.823 L35.981,26.823 L36.226,27.225 L36.384,27.225 L36.119,26.815 C36.257,26.799 36.361,26.726 36.361,26.561 C36.361,26.376 36.252,26.297 36.033,26.297 L35.679,26.297 L35.679,27.225 L35.819,27.225 L35.819,26.823 Z M35.819,26.704 L35.819,26.416 L36.011,26.416 C36.109,26.416 36.214,26.438 36.214,26.553 C36.214,26.695 36.108,26.705 35.988,26.705 L35.819,26.705 L35.819,26.704 Z" id="Shape" fill="#FFFFFF"></path>
                <path d="M36.895,26.762 C36.895,27.263 36.487,27.671 35.985,27.671 C35.483,27.671 35.075,27.263 35.075,26.762 C35.075,26.26 35.483,25.852 35.985,25.852 C36.488,25.852 36.895,26.26 36.895,26.762 Z M35.985,26.013 C35.571,26.013 35.236,26.348 35.236,26.763 C35.236,27.176 35.571,27.509 35.985,27.509 C36.398,27.509 36.733,27.175 36.733,26.763 C36.733,26.348 36.398,26.013 35.985,26.013 Z" id="Shape" fill="#FFFFFF"></path>
                <path d="M30.938,27.524 C29.665,27.524 28.506,27.744 27.652,28.101 C27.558,28.148 27.491,28.246 27.491,28.358 C27.491,28.399 27.501,28.44 27.517,28.476 C27.618,28.769 27.452,29.086 26.625,29.268 C25.399,29.537 24.625,30.803 24.182,31.223 C23.662,31.717 22.193,32.02 22.414,31.726 C22.587,31.496 23.248,30.778 23.65,30.002 C24.01,29.308 24.33,29.111 24.771,28.449 C24.9,28.255 25.402,27.573 25.548,27.034 C25.712,26.508 25.657,25.847 25.719,25.575 C25.809,25.182 26.18,24.331 26.207,23.851 C26.223,23.579 25.072,24.239 24.526,24.239 C23.98,24.239 23.448,23.911 22.96,23.888 C22.356,23.86 21.968,24.354 21.421,24.268 C21.109,24.218 20.846,23.943 20.301,23.923 C19.525,23.895 18.576,24.355 16.794,24.297 C15.041,24.24 13.422,22.081 13.201,21.738 C12.942,21.336 12.626,21.336 12.281,21.652 C11.936,21.968 11.511,21.719 11.39,21.507 C11.16,21.105 10.545,19.93 9.593,19.683 C8.276,19.342 7.61,20.412 7.696,21.263 C7.784,22.127 8.342,22.37 8.601,22.829 C8.859,23.289 8.992,23.585 9.479,23.788 C9.824,23.933 9.952,24.145 9.85,24.428 C9.76,24.675 9.401,24.731 9.165,24.743 C8.663,24.767 8.312,24.631 8.055,24.467 C7.757,24.276 7.514,24.012 7.254,23.564 C6.953,23.069 6.478,22.854 5.926,22.854 C5.663,22.854 5.416,22.923 5.197,23.036 C4.331,23.487 3.3,23.754 2.19,23.754 L0.938,23.755 C3.34,30.874 10.071,36 18.001,36 C24.335,36 29.904,32.729 33.113,27.784 C32.418,27.625 31.683,27.524 30.938,27.524 Z" id="Shape" fill="#FFFFFF"></path>
                <path d="M21.927,26.12 C21.911,26.12 21.896,26.127 21.885,26.138 C21.652,26.409 21.551,26.498 21.383,26.633 C20.977,26.96 20.513,26.591 20.216,26.416 C19.555,26.028 19.023,26.273 18.894,26.573 C18.765,26.876 18.908,27.239 19.268,27.191 C19.772,27.126 19.794,27.204 20.159,27.435 C20.838,27.865 21.333,27.631 21.586,27.428 C21.797,27.26 21.914,27.117 22.024,26.912 C22.219,26.527 22.06,26.222 21.967,26.132 C21.955,26.126 21.941,26.12 21.927,26.12 Z" id="Shape" fill="#000000"></path>
                <path d="M18.001,0 C8.059,0 0,8.059 0,18 C0,20.012 0.33,21.948 0.939,23.754 L2.191,23.754 C3.301,23.754 4.332,23.487 5.198,23.036 C5.417,22.924 5.664,22.854 5.927,22.854 C6.48,22.854 6.954,23.069 7.255,23.564 C7.515,24.013 7.758,24.277 8.056,24.466 C8.312,24.63 8.664,24.766 9.166,24.743 C9.402,24.732 9.761,24.675 9.851,24.428 C9.954,24.145 9.825,23.931 9.48,23.788 C8.993,23.585 8.861,23.287 8.602,22.827 C8.343,22.368 7.784,22.125 7.697,21.261 C7.61,20.41 8.277,19.339 9.594,19.681 C10.546,19.927 11.161,21.103 11.391,21.506 C11.512,21.718 11.937,21.966 12.282,21.651 C12.626,21.334 12.943,21.334 13.202,21.737 C13.423,22.08 15.042,24.238 16.795,24.295 C18.577,24.352 19.526,23.892 20.302,23.921 C20.847,23.942 21.11,24.216 21.422,24.266 C21.969,24.352 22.357,23.858 22.961,23.887 C23.449,23.911 23.981,24.237 24.527,24.237 C25.073,24.237 26.224,23.578 26.208,23.85 C26.18,24.33 25.81,25.182 25.72,25.574 C25.657,25.846 25.712,26.507 25.549,27.034 C25.403,27.573 24.901,28.255 24.772,28.45 C24.331,29.111 24.011,29.309 23.651,30.002 C23.249,30.778 22.588,31.496 22.415,31.726 C22.194,32.02 23.663,31.717 24.183,31.223 C24.626,30.802 25.4,29.538 26.626,29.268 C27.453,29.086 27.619,28.769 27.518,28.476 C27.503,28.442 27.492,28.4 27.492,28.359 C27.492,28.247 27.559,28.149 27.653,28.101 C28.507,27.746 29.666,27.525 30.939,27.525 C31.683,27.525 32.419,27.624 33.113,27.785 C34.94,24.967 36.001,21.608 36.001,18 C36.001,8.059 27.942,0 18.001,0 Z" id="Shape" fill="#000000"></path>
                <path d="M28.158,13.211 C27.98,13.809 27.727,14.574 26.602,15.151 C26.438,15.235 26.375,15.097 26.451,14.968 C26.876,14.245 26.952,14.064 27.076,13.778 C27.249,13.361 27.34,12.767 26.996,11.529 C26.319,9.093 24.907,5.837 23.88,4.78 C22.89,3.761 21.095,3.474 19.472,3.89 C18.874,4.043 17.705,4.651 15.538,4.163 C11.786,3.318 11.23,5.197 11.015,6.015 C10.799,6.834 10.282,9.16 10.282,9.16 C10.11,10.108 9.884,11.755 15.71,12.865 C18.424,13.382 18.562,14.083 18.682,14.588 C18.898,15.492 19.242,16.01 19.63,16.268 C20.018,16.527 19.63,16.741 19.2,16.785 C18.044,16.905 13.772,15.68 11.245,14.244 C9.177,12.98 9.143,11.843 9.616,10.877 C6.493,10.539 4.148,11.17 3.724,12.648 C2.995,15.185 9.303,19.52 16.486,21.695 C24.024,23.977 31.778,22.384 32.64,17.645 C33.029,15.493 31.216,13.901 28.158,13.211 Z M16.6,8.571 C14.521,8.721 14.305,8.946 13.916,9.361 C13.367,9.946 12.643,8.602 12.643,8.602 C12.209,8.511 11.683,7.811 11.966,7.157 C12.246,6.511 12.762,6.704 12.924,6.906 C13.121,7.151 13.541,7.552 14.087,7.538 C14.633,7.524 15.262,7.409 16.14,7.409 C17.03,7.409 17.628,7.741 17.662,8.027 C17.692,8.27 17.59,8.499 16.6,8.571 Z M21.097,6.501 C20.724,6.492 20.373,6.438 20.071,6.351 C20.035,6.342 20.01,6.311 20.01,6.275 C20.01,6.239 20.036,6.208 20.072,6.199 C20.792,6.032 21.278,5.76 21.243,5.503 C21.198,5.162 20.256,4.976 19.14,5.088 C19.018,5.101 18.899,5.116 18.783,5.134 C18.78,5.134 18.777,5.135 18.774,5.135 C18.742,5.135 18.716,5.11 18.716,5.08 C18.716,5.058 18.729,5.039 18.749,5.03 C19.152,4.817 19.753,4.648 20.442,4.578 C20.649,4.557 20.85,4.546 21.045,4.545 C21.079,4.545 21.113,4.545 21.148,4.545 C22.302,4.571 23.225,5.03 23.212,5.569 C23.198,6.111 22.252,6.527 21.097,6.501 Z" id="Shape" fill="#CC0000"></path>
            </g>
            <g id="Group" transform="translate(45.000000, 9.000000)" fill="#FFFFFF">
                <path d="M0.176,10.136 C0.176,8.485 0.142,7.271 0.075,6.173 L2.775,6.173 L2.891,8.515 L2.979,8.515 C3.586,6.779 5.024,5.894 6.355,5.894 C6.66,5.894 6.837,5.905 7.086,5.961 L7.086,8.898 C6.794,8.841 6.522,8.809 6.147,8.809 C4.661,8.809 3.63,9.754 3.352,11.168 C3.299,11.443 3.271,11.773 3.271,12.109 L3.271,18.504 L0.151,18.504 L0.176,10.136 Z" id="Shape"></path>
                <path d="M10.851,13.178 C10.933,15.413 12.663,16.39 14.66,16.39 C16.094,16.39 17.12,16.165 18.063,15.819 L18.524,17.964 C17.469,18.412 16.004,18.746 14.215,18.746 C10.21,18.746 7.865,16.273 7.865,12.495 C7.865,9.091 9.93,5.871 13.896,5.871 C17.906,5.871 19.211,9.169 19.211,11.869 C19.211,12.448 19.159,12.914 19.1,13.201 L10.851,13.178 Z M16.274,11.006 C16.288,9.863 15.791,8.001 13.703,8.001 C11.783,8.001 10.985,9.742 10.845,11.006 L16.274,11.006 Z" id="Shape"></path>
                <path d="M56.132,15.573 C56.132,16.549 56.171,17.559 56.312,18.505 L55.188,18.505 L55.009,16.736 L54.951,16.736 C54.353,17.687 52.978,18.785 51.016,18.785 C48.533,18.785 47.377,17.039 47.377,15.393 C47.377,12.544 49.892,10.828 54.912,10.881 L54.912,10.551 C54.912,9.33 54.675,6.895 51.755,6.914 C50.675,6.914 49.55,7.203 48.657,7.834 L48.268,6.946 C49.395,6.182 50.773,5.88 51.889,5.88 C55.451,5.88 56.132,8.554 56.132,10.759 L56.132,15.573 Z M54.912,11.908 C52.224,11.831 48.676,12.238 48.676,15.201 C48.676,16.975 49.847,17.772 51.132,17.772 C53.189,17.772 54.358,16.499 54.784,15.297 C54.873,15.034 54.912,14.769 54.912,14.558 L54.912,11.908 Z" id="Shape"></path>
                <path d="M60.993,3.442 L60.993,6.162 L64.511,6.162 L64.511,7.152 L60.993,7.152 L60.993,15.174 C60.993,16.743 61.48,17.727 62.806,17.727 C63.442,17.727 63.892,17.643 64.208,17.534 L64.356,18.479 C63.957,18.646 63.398,18.776 62.653,18.776 C61.752,18.776 61.005,18.492 60.523,17.901 C59.964,17.253 59.773,16.217 59.773,14.958 L59.773,7.153 L57.69,7.153 L57.69,6.163 L59.773,6.163 L59.773,3.894 L60.993,3.442 Z" id="Shape"></path>
                <path d="M66.053,17.848 L66.215,17.848 L66.46,18.25 L66.618,18.25 L66.353,17.84 C66.491,17.823 66.595,17.751 66.595,17.586 C66.595,17.401 66.485,17.322 66.267,17.322 L65.913,17.322 L65.913,18.25 L66.054,18.25 L66.054,17.848 L66.053,17.848 Z M66.053,17.728 L66.053,17.44 L66.244,17.44 C66.341,17.44 66.447,17.462 66.447,17.576 C66.447,17.719 66.341,17.728 66.221,17.728 L66.053,17.728 Z" id="Shape"></path>
                <path d="M67.13,17.786 C67.13,18.287 66.722,18.695 66.22,18.695 C65.719,18.695 65.31,18.287 65.31,17.786 C65.31,17.284 65.719,16.876 66.22,16.876 C66.722,16.876 67.13,17.284 67.13,17.786 Z M66.22,17.037 C65.805,17.037 65.471,17.372 65.471,17.786 C65.471,18.199 65.805,18.532 66.22,18.532 C66.633,18.532 66.968,18.199 66.968,17.786 C66.968,17.372 66.632,17.037 66.22,17.037 Z" id="Shape"></path>
                <path d="M29.529,7.5 L29.478,7.5 C28.926,6.589 27.71,5.894 26.022,5.894 C23.056,5.894 20.474,8.348 20.493,12.48 C20.493,16.271 22.825,18.782 25.77,18.782 C27.55,18.782 29.037,17.934 29.774,16.552 L29.829,16.552 L29.969,18.505 L32.747,18.505 C32.69,17.667 32.644,16.309 32.644,15.046 L32.644,1.44 L29.527,0.545 L29.527,7.5 L29.529,7.5 Z M29.529,13.158 C29.529,13.485 29.506,13.789 29.435,14.068 C29.121,15.418 28.018,16.287 26.742,16.287 C24.779,16.287 23.655,14.632 23.655,12.366 C23.655,10.078 24.769,8.307 26.777,8.307 C28.179,8.307 29.183,9.295 29.459,10.496 C29.512,10.749 29.529,11.06 29.529,11.31 L29.529,13.158 Z" id="Shape"></path>
                <path d="M40.891,5.88 C39.952,5.88 39.111,6.151 38.404,6.587 C37.67,7.017 37.073,7.68 36.718,8.367 L36.669,8.367 L36.669,2.596 L35.448,2.245 L35.448,18.505 L36.669,18.505 L36.669,10.957 C36.669,10.456 36.707,10.108 36.835,9.741 C37.362,8.206 38.809,6.946 40.558,6.946 C43.085,6.946 43.959,8.972 43.959,11.195 L43.959,18.505 L45.179,18.505 L45.179,11.06 C45.178,6.463 42.06,5.88 40.891,5.88 Z" id="Shape"></path>
            </g>
        </g>
    </g>
</svg>